<?xml version="1.0" encoding="utf-8"?>
<!-- Generator: Adobe Illustrator 15.0.0, SVG Export Plug-In . SVG Version: 6.00 Build 0)  -->
<!DOCTYPE svg PUBLIC "-//W3C//DTD SVG 1.1//EN" "http://www.w3.org/Graphics/SVG/1.1/DTD/svg11.dtd">
<svg version="1.1" id="Layer_1" xmlns="http://www.w3.org/2000/svg" xmlns:xlink="http://www.w3.org/1999/xlink" x="0px" y="0px"
	 width="40px" height="30px" viewBox="0 0 40 30" enable-background="new 0 0 40 30" xml:space="preserve">
<path fill="#F1F1F1" d="M37,0H3H0l2.436,1.743C2.438,1.744,2.439,1.745,2.44,1.746L10,7.156l7.561,5.41
	c1.342,0.96,3.537,0.96,4.878,0L30,7.156l7.561-5.41c0.002-0.001,0.002-0.002,0.004-0.003L40,0H37z"/>
<path fill="#F1F1F1" d="M37.578,3.396l-15.16,11.085c-1.332,0.972-3.519,0.984-4.861,0.027l-7.187-5.12L2.442,3.74L0,2v3v21.75
	c0,1.65,1.35,3.009,3,3.02l17,0.105l17.002,0.105C38.65,29.99,40,28.648,40,27V4.625v-3L37.578,3.396z"/>
</svg>
